<?xml version="1.0" standalone="no"?>
<!DOCTYPE svg PUBLIC "-//W3C//DTD SVG 20010904//EN"
 "http://www.w3.org/TR/2001/REC-SVG-20010904/DTD/svg10.dtd">
<svg version="1.0" xmlns="http://www.w3.org/2000/svg"
 width="512.000000pt" height="512.000000pt" viewBox="0 0 512.000000 512.000000"
 preserveAspectRatio="xMidYMid meet">
<metadata>
Created by potrace 1.14, written by Peter Selinger 2001-2017
</metadata>
<g transform="translate(0.000000,512.000000) scale(0.100000,-0.100000)"
fill="#000000" stroke="none">
<path d="M1236 5100 c-113 -44 -141 -80 -167 -208 -29 -142 -54 -190 -150
-280 -201 -188 -295 -282 -348 -347 -257 -314 -354 -655 -322 -1126 21 -295
72 -580 201 -1109 102 -423 104 -431 97 -553 -6 -125 -25 -181 -140 -407 -46
-91 -88 -189 -95 -218 -39 -173 15 -428 112 -532 141 -152 375 -248 731 -302
120 -18 642 -18 785 0 862 107 1689 460 2290 977 373 321 594 637 641 917 21
124 -12 247 -104 391 -77 120 -160 179 -372 266 -165 68 -206 90 -281 150
-103 82 -144 149 -329 536 -426 894 -691 1265 -1060 1483 -210 124 -438 178
-805 192 -118 4 -230 13 -248 19 -48 15 -109 53 -171 106 -30 26 -66 51 -79
56 -39 15 -134 9 -186 -11z m2749 -2930 c296 -28 493 -130 470 -243 -19 -92
-162 -286 -340 -462 -536 -533 -1337 -914 -2135 -1015 -450 -57 -988 -9 -1187
106 -54 31 -62 65 -34 154 32 104 109 210 260 360 211 210 430 363 776 541
751 386 1634 611 2190 559z"/>
<path d="M2538 1695 c-544 -196 -946 -411 -1317 -703 l-23 -19 40 -31 c251
-200 753 -164 1115 78 176 118 309 289 353 455 23 86 15 237 -15 266 -3 4 -72
-17 -153 -46z"/>
</g>
</svg>
